# xmcd CD database file
#
# Track frame offsets:
#	150
#	14196
#	30692
#	49664
#	70475
#	83947
#	96606
#	112382
#	123358
#	149500
#	162244
#	175403
#	186105
#	203030
#	215309
#
# Disc length: 3050 seconds
#
# Revision: 3
# Processed by: cddbd v1.5.1PL0 Copyright (c) Steve Scherf et al.
# Submitted via: CDex 1.51
#
DISCID=ea0be80f
DTITLE=Various Artist - Blues Giants 3
DYEAR=1900
DGENRE=Blues
TTITLE0=Bukka White - Army Blues
TTITLE1=T-Bone Walker - No Do Right
TTITLE2=Lightning Hopkins - Good Times
TTITLE3=Missisissippi John Hurt - Coffee Blues
TTITLE4=Memphis Slim - My Gal Keeps Me Crying
TTITLE5=Jimmy Reed - Honest I Do
TTITLE6=Leadbelly - The Good Morning Blues
TTITLE7=John Lee Hooker - Hard Hearted Woman
TTITLE8=John Mayhall - Mexico City
TTITLE9=Robert Johnson - Phonograph Blues
TTITLE10=Lightning Slim - Good Morning Heartaches
TTITLE11=Sonny Boy Williamson - Blue Bird Blues
TTITLE12=Etta James - Dust My Broom
TTITLE13=Bukka White - Strange Place Blues
TTITLE14=Brownie McGhee - Born For Bad Luck
EXTD=Eigentümer Daniel Perlick
EXTT0=
EXTT1=
EXTT2=
EXTT3=
EXTT4=
EXTT5=
EXTT6=
EXTT7=
EXTT8=
EXTT9=
EXTT10=
EXTT11=
EXTT12=
EXTT13=
EXTT14=
PLAYORDER=
